<?xml version="1.0" encoding="UTF-8" standalone="no"?>
<!-- Created with Inkscape (http://www.inkscape.org/) -->

<svg
   xmlns:dc="http://purl.org/dc/elements/1.1/"
   xmlns:cc="http://creativecommons.org/ns#"
   xmlns:rdf="http://www.w3.org/1999/02/22-rdf-syntax-ns#"
   xmlns:svg="http://www.w3.org/2000/svg"
   xmlns="http://www.w3.org/2000/svg"
   xmlns:xlink="http://www.w3.org/1999/xlink"
   xmlns:sodipodi="http://sodipodi.sourceforge.net/DTD/sodipodi-0.dtd"
   xmlns:inkscape="http://www.inkscape.org/namespaces/inkscape"
   id="svg3390"
   version="1.1"
   inkscape:version="0.91 r13725"
   width="511.02042"
   height="512.19641"
   viewBox="0 0 511.02042 512.19641"
   sodipodi:docname="meow.svg">
  <metadata
     id="metadata3396">
    <rdf:RDF>
      <cc:Work
         rdf:about="">
        <dc:format>image/svg+xml</dc:format>
        <dc:type
           rdf:resource="http://purl.org/dc/dcmitype/StillImage" />
        <dc:title></dc:title>
      </cc:Work>
    </rdf:RDF>
  </metadata>
  <defs
     id="defs3394">
    <linearGradient
       id="linearGradient4526"
       inkscape:collect="always">
      <stop
         id="stop4528"
         offset="0"
         style="stop-color:#3193a5;stop-opacity:1" />
      <stop
         id="stop4530"
         offset="1"
         style="stop-color:#29b0d4;stop-opacity:0" />
    </linearGradient>
    <linearGradient
       inkscape:collect="always"
       id="linearGradient4370">
      <stop
         style="stop-color:#89cfdc;stop-opacity:1"
         offset="0"
         id="stop4372" />
      <stop
         style="stop-color:#1f829c;stop-opacity:1"
         offset="1"
         id="stop4374" />
    </linearGradient>
    <radialGradient
       inkscape:collect="always"
       xlink:href="#linearGradient4526"
       id="radialGradient4380"
       cx="257.45538"
       cy="253.89186"
       fx="257.45538"
       fy="253.89186"
       r="258.32904"
       gradientUnits="userSpaceOnUse"
       gradientTransform="matrix(0.58280972,-0.58187634,0.56360474,0.56360472,-39.177525,250.91779)" />
    <radialGradient
       inkscape:collect="always"
       xlink:href="#linearGradient4370"
       id="radialGradient4433"
       gradientUnits="userSpaceOnUse"
       gradientTransform="matrix(0.93504019,-0.88677819,0.88371118,0.93253637,-211.16752,240.39523)"
       cx="257.45538"
       cy="253.89186"
       fx="257.45538"
       fy="253.89186"
       r="258.32904" />
  </defs>
  <sodipodi:namedview
     pagecolor="#ffffff"
     bordercolor="#666666"
     borderopacity="1"
     objecttolerance="10"
     gridtolerance="10"
     guidetolerance="10"
     inkscape:pageopacity="0"
     inkscape:pageshadow="2"
     inkscape:window-width="1920"
     inkscape:window-height="1025"
     id="namedview3392"
     showgrid="false"
     showguides="false"
     fit-margin-top="0"
     fit-margin-left="0"
     fit-margin-right="0"
     fit-margin-bottom="0"
     inkscape:zoom="0.9534893"
     inkscape:cx="-50.883436"
     inkscape:cy="244.09252"
     inkscape:window-x="1920"
     inkscape:window-y="27"
     inkscape:window-maximized="1"
     inkscape:current-layer="svg3390" />
  <rect
     inkscape:export-ydpi="90.172523"
     inkscape:export-xdpi="90.172523"
     ry="40.367668"
     y="5.0940976"
     x="5.0941849"
     height="502.00815"
     width="501.81165"
     id="rect4431"
     style="opacity:1;fill:url(#radialGradient4433);fill-opacity:1;stroke:#031719;stroke-width:10.18836975;stroke-linecap:round;stroke-linejoin:round;stroke-miterlimit:4;stroke-dasharray:none;stroke-opacity:1" />
  <rect
     style="opacity:1;fill:url(#radialGradient4380);fill-opacity:1;stroke:#0a6179;stroke-width:10.00958061;stroke-linecap:round;stroke-linejoin:round;stroke-miterlimit:4;stroke-dasharray:none;stroke-opacity:1"
     id="rect4308"
     width="493.58411"
     height="492.6207"
     x="9.2079706"
     y="5.0049882"
     ry="39.612801"
     inkscape:export-xdpi="90.172523"
     inkscape:export-ydpi="90.172523" />
  <path
     style="fill:#ffffff;fill-opacity:1;stroke:#0a6179;stroke-width:20.01;stroke-miterlimit:4;stroke-dasharray:none;stroke-opacity:0.85714287"
     d="m 238.71765,397.17741 c -11.6432,-1.08258 -34.83021,-5.3439 -44.83465,-8.23974 -21.39485,-6.19298 -40.34798,-16.25829 -55.8831,-29.67753 -3.08917,-2.66855 -6.83391,-4.80581 -8.42018,-4.80581 -1.57113,0 -16.46782,4.63051 -33.103774,10.29 -16.635951,5.6595 -31.061732,10.29001 -32.057256,10.29001 -3.181148,0 -5.47468,-3.94433 -9.335442,-16.05479 -4.225867,-13.25595 -4.511419,-15.7184 -2.058378,-17.75026 0.939917,-0.77859 12.778296,-5.1031 26.307443,-9.61012 13.529048,-4.50701 24.785807,-8.75573 25.014847,-9.44162 0.48023,-1.43767 -18.570993,-2.83034 -38.719633,-2.83034 -12.591836,0 -13.355612,-0.1464 -16.347895,-3.13274 -2.904213,-2.89865 -3.081456,-3.68123 -2.370782,-10.4676 0.422516,-4.03412 0.768184,-10.2122 0.768184,-13.72904 0,-10.40429 0.07615,-10.43239 27.079536,-9.9803 l 23.098943,0.38669 1.508415,-10.3334 c 1.748782,-11.97907 5.696712,-23.05836 11.769042,-33.02787 3.21983,-5.28629 4.15604,-8.00454 3.75236,-10.89529 -5.73699,-41.0852 -6.55517,-62.1518 -3.59365,-92.52371 2.39513,-24.56373 6.16522,-30.85041 18.50076,-30.85041 12.91155,0 35.71081,16.36228 70.85343,50.84912 l 17.72426,17.39337 11.6421,-1.29558 c 14.64159,-1.62947 33.66236,-1.63437 52.17473,-0.014 l 14.35835,1.25708 20.21096,-19.20283 c 26.82345,-25.48551 37.87891,-34.78943 49.90906,-42.0019 8.54161,-5.1209 11.1227,-6.07528 17.53319,-6.48267 7.0403,-0.44739 7.74917,-0.246 11.177,3.17514 7.02738,7.01366 10.0393,23.20485 10.06465,54.10416 0.016,18.58724 -0.30679,23.20885 -3.7247,53.43687 l -1.52505,13.48734 5.24103,8.02854 c 6.60848,10.12321 10.75048,21.44169 12.66408,34.60554 l 1.49579,10.2901 19.94224,-0.41469 c 16.02958,-0.3333 20.39822,-0.07 22.26654,1.34137 1.94656,1.47077 2.48009,4.07492 3.28364,16.02609 0.56399,8.38884 0.50007,15.12681 -0.1553,16.34889 -1.30051,2.42535 -7.14841,3.58703 -18.18875,3.61343 -4.33628,0.011 -14.04845,0.37329 -21.58251,0.80658 -19.63956,1.12948 -18.39045,2.64015 10.00654,12.10137 12.64634,4.21342 23.82424,8.49004 24.8397,9.50352 1.6532,1.64997 1.63085,2.66285 -0.21341,9.68071 -2.96533,11.28398 -7.25452,21.35259 -9.74844,22.88396 -1.71742,1.05448 -8.13783,-0.71259 -31.53685,-8.68013 -16.15923,-5.5023 -30.43081,-9.99661 -31.71449,-9.98741 -1.28368,0.01 -7.28779,3.78153 -13.34249,8.38284 -23.33179,17.73096 -52.80135,28.91684 -86.26091,32.74227 -10.23428,1.17018 -37.76269,1.39977 -48.46918,0.40429 z M 196.13746,291.71484 c 5.33421,-3.07874 8.28872,-7.87155 8.92475,-14.47762 1.01867,-10.5811 -4.28849,-17.83586 -15.19116,-20.7659 -4.41173,-1.18558 -5.90772,-1.05528 -10.33908,0.90118 -13.61502,6.01079 -16.95277,21.51099 -6.81167,31.63229 6.27162,6.25938 15.43102,7.31936 23.41716,2.71005 z m 139.34671,2.13726 c 8.61715,-2.38835 15.43192,-11.20408 15.43192,-19.96282 0,-4.62151 -4.85318,-12.20526 -9.40046,-14.68941 -7.33949,-4.00953 -11.26588,-4.22062 -18.26941,-0.98218 -7.77503,3.59523 -11.13382,8.63053 -11.14013,16.70047 -0.01,8.61874 4.66862,15.8895 12.12563,18.85724 3.9855,1.58617 5.76254,1.59827 11.25245,0.077 z"
     id="path3428"
     inkscape:connector-curvature="0"
     inkscape:export-xdpi="90.172523"
     inkscape:export-ydpi="90.172523" />
  <path
     inkscape:connector-curvature="0"
     id="path4270"
     d="m 238.71765,397.17741 c -11.6432,-1.08258 -34.83021,-5.3439 -44.83465,-8.23974 -21.39485,-6.19298 -40.34798,-16.25829 -55.8831,-29.67753 -3.08917,-2.66855 -6.83391,-4.80581 -8.42018,-4.80581 -1.57113,0 -16.46782,4.63051 -33.103774,10.29 -16.635951,5.6595 -31.061732,10.29001 -32.057256,10.29001 -3.181148,0 -5.47468,-3.94433 -9.335442,-16.05479 -4.225867,-13.25595 -4.511419,-15.7184 -2.058378,-17.75026 0.939917,-0.77859 12.778296,-5.1031 26.307443,-9.61012 13.529048,-4.50701 24.785807,-8.75573 25.014847,-9.44162 0.48023,-1.43767 -18.570993,-2.83034 -38.719633,-2.83034 -12.591836,0 -13.355612,-0.1464 -16.347895,-3.13274 -2.904213,-2.89865 -3.081456,-3.68123 -2.370782,-10.4676 0.422516,-4.03412 0.768184,-10.2122 0.768184,-13.72904 0,-10.40429 0.07615,-10.43239 27.079536,-9.9803 l 23.098943,0.38669 1.508415,-10.3334 c 1.748782,-11.97907 5.696712,-23.05836 11.769042,-33.02787 3.21983,-5.28629 4.15604,-8.00454 3.75236,-10.89529 -5.73699,-41.0852 -6.55517,-62.1518 -3.59365,-92.52371 2.39513,-24.56373 6.16522,-30.85041 18.50076,-30.85041 12.91155,0 35.71081,16.36228 70.85343,50.84912 l 17.72426,17.39337 11.6421,-1.29558 c 14.64159,-1.62947 33.66236,-1.63437 52.17473,-0.014 l 14.35835,1.25708 20.21096,-19.20283 c 26.82345,-25.48551 37.87891,-34.78943 49.90906,-42.0019 8.54161,-5.1209 11.1227,-6.07528 17.53319,-6.48267 7.0403,-0.44739 7.74917,-0.246 11.177,3.17514 7.02738,7.01366 10.0393,23.20485 10.06465,54.10416 0.016,18.58724 -0.30679,23.20885 -3.7247,53.43687 l -1.52505,13.48734 5.24103,8.02854 c 6.60848,10.12321 10.75048,21.44169 12.66408,34.60554 l 1.49579,10.2901 19.94224,-0.41469 c 16.02958,-0.3333 20.39822,-0.07 22.26654,1.34137 1.94656,1.47077 2.48009,4.07492 3.28364,16.02609 0.56399,8.38884 0.50007,15.12681 -0.1553,16.34889 -1.30051,2.42535 -7.14841,3.58703 -18.18875,3.61343 -4.33628,0.011 -14.04845,0.37329 -21.58251,0.80658 -19.63956,1.12948 -18.39045,2.64015 10.00654,12.10137 12.64634,4.21342 23.82424,8.49004 24.8397,9.50352 1.6532,1.64997 1.63085,2.66285 -0.21341,9.68071 -2.96533,11.28398 -7.25452,21.35259 -9.74844,22.88396 -1.71742,1.05448 -8.13783,-0.71259 -31.53685,-8.68013 -16.15923,-5.5023 -30.43081,-9.99661 -31.71449,-9.98741 -1.28368,0.01 -7.28779,3.78153 -13.34249,8.38284 -23.33179,17.73096 -52.80135,28.91684 -86.26091,32.74227 -10.23428,1.17018 -37.76269,1.39977 -48.46918,0.40429 z M 196.13746,291.71484 c 5.33421,-3.07874 8.28872,-7.87155 8.92475,-14.47762 1.01867,-10.5811 -4.28849,-17.83586 -15.19116,-20.7659 -4.41173,-1.18558 -5.90772,-1.05528 -10.33908,0.90118 -13.61502,6.01079 -16.95277,21.51099 -6.81167,31.63229 6.27162,6.25938 15.43102,7.31936 23.41716,2.71005 z m 139.34671,2.13726 c 8.61715,-2.38835 15.43192,-11.20408 15.43192,-19.96282 0,-4.62151 -4.85318,-12.20526 -9.40046,-14.68941 -7.33949,-4.00953 -11.26588,-4.22062 -18.26941,-0.98218 -7.77503,3.59523 -11.13382,8.63053 -11.14013,16.70047 -0.01,8.61874 4.66862,15.8895 12.12563,18.85724 3.9855,1.58617 5.76254,1.59827 11.25245,0.077 z"
     style="fill:none;stroke:none;stroke-width:15;stroke-miterlimit:4;stroke-dasharray:none;stroke-opacity:1"
     inkscape:export-xdpi="90.172523"
     inkscape:export-ydpi="90.172523" />
</svg>
